<svg width="72" height="72" viewBox="0 0 72 72" fill="none" xmlns="http://www.w3.org/2000/svg">
<g id="Logos/bootstrap-original">
<path id="Vector" d="M8.42903 15.5882C8.29572 11.7547 11.282 8.21997 15.3191 8.21997H56.6853C60.7224 8.21997 63.7087 11.7547 63.5754 15.5882C63.4472 19.2703 63.6137 24.0403 64.814 27.9294C66.0183 31.8309 68.049 34.2963 71.375 34.6136V38.2063C68.049 38.5235 66.0183 40.989 64.814 44.8905C63.6137 48.7796 63.4472 53.5496 63.5754 57.2317C63.7087 61.0652 60.7224 64.5993 56.6853 64.5993H15.3191C11.282 64.5993 8.29572 61.0646 8.42903 57.2317C8.55728 53.5496 8.39078 48.7796 7.18984 44.8905C5.98609 40.9895 3.94984 38.5235 0.623779 38.2063V34.6136C3.94984 34.2969 5.98609 31.8309 7.18984 27.9294C8.39078 24.0403 8.55672 19.2703 8.42903 15.5882Z" fill="url(#paint0_linear_83_120)"/>
<g id="Vector_2" filter="url(#filter0_d_83_120)">
<path d="M37.7491 51.6015C44.2848 51.6015 48.2232 48.4014 48.2232 43.1232C48.2232 39.1334 45.4131 36.245 41.2405 35.7877V35.6215C44.3061 35.1228 46.7117 32.2759 46.7117 29.0966C46.7117 24.5665 43.1352 21.6156 37.6853 21.6156H25.4229V51.6015H37.7491ZM30.1916 25.4184H36.5357C39.9845 25.4184 41.943 26.9561 41.943 29.7407C41.943 32.7123 39.6652 34.3747 35.5351 34.3747H30.1916V25.4184ZM30.1916 47.7987V37.9281H36.493C41.0063 37.9281 43.3481 39.5904 43.3481 42.8322C43.3481 46.0738 41.0702 47.7987 36.7698 47.7987H30.1916Z" fill="url(#paint1_linear_83_120)"/>
<path d="M37.7491 51.6015C44.2848 51.6015 48.2232 48.4014 48.2232 43.1232C48.2232 39.1334 45.4131 36.245 41.2405 35.7877V35.6215C44.3061 35.1228 46.7117 32.2759 46.7117 29.0966C46.7117 24.5665 43.1352 21.6156 37.6853 21.6156H25.4229V51.6015H37.7491ZM30.1916 25.4184H36.5357C39.9845 25.4184 41.943 26.9561 41.943 29.7407C41.943 32.7123 39.6652 34.3747 35.5351 34.3747H30.1916V25.4184ZM30.1916 47.7987V37.9281H36.493C41.0063 37.9281 43.3481 39.5904 43.3481 42.8322C43.3481 46.0738 41.0702 47.7987 36.7698 47.7987H30.1916Z" stroke="white" stroke-width="0.24566"/>
</g>
</g>
<defs>
<filter id="filter0_d_83_120" x="21.3695" y="18.5449" width="30.907" height="38.0926" filterUnits="userSpaceOnUse" color-interpolation-filters="sRGB">
<feFlood flood-opacity="0" result="BackgroundImageFix"/>
<feColorMatrix in="SourceAlpha" type="matrix" values="0 0 0 0 0 0 0 0 0 0 0 0 0 0 0 0 0 0 127 0" result="hardAlpha"/>
<feOffset dy="0.98264"/>
<feGaussianBlur stdDeviation="1.96528"/>
<feColorMatrix type="matrix" values="0 0 0 0 0 0 0 0 0 0 0 0 0 0 0 0 0 0 0.15 0"/>
<feBlend mode="normal" in2="BackgroundImageFix" result="effect1_dropShadow_83_120"/>
<feBlend mode="normal" in="SourceGraphic" in2="effect1_dropShadow_83_120" result="shape"/>
</filter>
<linearGradient id="paint0_linear_83_120" x1="11.1372" y1="9.71208" x2="72.9608" y2="58.7883" gradientUnits="userSpaceOnUse">
<stop stop-color="#9013FE"/>
<stop offset="1" stop-color="#6610F2"/>
</linearGradient>
<linearGradient id="paint1_linear_83_120" x1="27.5802" y1="23.5889" x2="41.3985" y2="46.9599" gradientUnits="userSpaceOnUse">
<stop stop-color="white"/>
<stop offset="1" stop-color="#F1E5FC"/>
</linearGradient>
</defs>
</svg>
