<svg width="72" height="72" viewBox="0 0 72 72" fill="none" xmlns="http://www.w3.org/2000/svg">
<g id="Logos/css3-original">
<path id="Vector" d="M10.5827 64.1939L4.92737 0.760254H67.0724L61.4114 64.1844L35.9622 71.2398L10.5827 64.1939Z" fill="#1572B6"/>
<path id="Vector_2" d="M36.0005 65.8475L56.5649 60.146L61.403 5.9469H36.0005V65.8475Z" fill="#33A9DC"/>
<path id="Vector_3" d="M36.0005 28.9285H46.2954L47.0064 20.9618H36.0005V13.1819H55.5091L55.3224 15.2693L53.4099 36.7085H36.0005V28.9285Z" fill="white"/>
<path id="Vector_4" d="M36.0467 49.1336L36.0124 49.1437L27.3482 46.8043L26.7941 40.5994H18.9855L20.075 52.8152L36.0112 57.2381L36.0467 57.228V49.1336Z" fill="#EBEBEB"/>
<path id="Vector_5" d="M45.6339 36.3796L44.6968 46.7983L36.0197 49.1405V57.2349L51.9688 52.8148L52.0858 51.5002L53.4391 36.3796H45.6339Z" fill="white"/>
<path id="Vector_6" d="M36.0269 13.1819V20.9618H17.2349L17.0791 19.2136L16.7248 15.2693L16.5386 13.1819H36.0269ZM36.0005 28.9296V36.7096H27.4454L27.2896 34.9613L26.9347 31.0171L26.7491 28.9296H36.0005Z" fill="#EBEBEB"/>
</g>
</svg>
