<svg width="72" height="72" viewBox="0 0 72 72" fill="none" xmlns="http://www.w3.org/2000/svg">
<path d="M15.3844 45.2924L21.3919 6.79491C21.6 5.48429 23.3606 5.16929 23.9794 6.34491L30.4369 18.4274L15.3844 45.2924V45.2924ZM58.1006 54.6468L52.3688 19.1868C52.1944 18.0843 50.8163 17.6343 50.0231 18.4274L13.8994 54.6468L33.8906 65.8687C34.5093 66.2091 35.2039 66.3875 35.91 66.3875C36.6161 66.3875 37.3107 66.2091 37.9294 65.8687L58.1006 54.6468V54.6468ZM41.8725 23.7093L37.2431 14.9062C36.7256 13.9049 35.3081 13.9049 34.7906 14.9062L14.4563 51.1593L41.8725 23.7093V23.7093Z" fill="#F58220"/>
</svg>
