<svg width="72" height="72" viewBox="0 0 72 72" fill="none" xmlns="http://www.w3.org/2000/svg">
<g id="Logos/git-plain">
<path id="Vector" d="M70.1674 32.8377L39.1641 1.8361C37.3798 0.0507266 34.4841 0.0507266 32.697 1.8361L26.2603 8.27448L34.4267 16.4409C36.3251 15.8002 38.5009 16.2299 40.0134 17.7425C40.7343 18.464 41.2375 19.3737 41.4656 20.3678C41.6937 21.3618 41.6374 22.4 41.3033 23.3635L49.1738 31.2352C51.0778 30.5787 53.2755 31.0029 54.7954 32.5261C56.9216 34.6507 56.9216 38.0949 54.7954 40.2205C54.2901 40.7261 53.6902 41.1271 53.0298 41.4007C52.3695 41.6743 51.6618 41.8151 50.947 41.8151C50.2323 41.8151 49.5245 41.6743 48.8642 41.4007C48.2039 41.1271 47.604 40.7261 47.0987 40.2205C46.3395 39.4609 45.822 38.4937 45.6114 37.4406C45.4007 36.3876 45.5062 35.2957 45.9146 34.3025L38.5751 26.9624L38.574 46.2792C39.1065 46.5415 39.5927 46.8888 40.0134 47.3075C42.1391 49.432 42.1391 52.8751 40.0134 55.0042C37.8878 57.1287 34.4424 57.1287 32.319 55.0042C30.1939 52.8757 30.0195 49.4326 32.1441 47.3075C32.6694 46.7827 33.1875 46.3861 33.75 46.1206V26.6249C33.1875 26.3594 32.67 25.9657 32.1435 25.4375C30.5342 23.8287 30.2332 21.4662 31.059 19.4885L23.0529 11.4374L1.81631 32.6943C0.0303715 34.4814 0.0416215 37.3771 1.82756 39.163L32.8359 70.1647C34.6208 71.95 37.5187 71.95 39.3064 70.1647L70.1651 39.307C71.9511 37.5205 71.9528 34.6231 70.1674 32.8377Z" fill="#F34F29"/>
</g>
</svg>
