<svg width="68" height="68" viewBox="0 0 68 68" fill="none" xmlns="http://www.w3.org/2000/svg">
<g id="Group">
<path id="Vector" fill-rule="evenodd" clip-rule="evenodd" d="M34 0.870605C15.2423 0.870605 0.0317497 16.0778 0.0317497 34.8389C0.0317497 49.8475 9.76469 62.5797 23.2613 67.0718C24.9584 67.3868 25.5816 66.3349 25.5816 65.4377C25.5816 64.6277 25.5501 61.9519 25.5355 59.1135C16.0855 61.1684 14.0914 55.1057 14.0914 55.1057C12.5463 51.1795 10.3199 50.1355 10.3199 50.1355C7.23738 48.0272 10.5522 48.0711 10.5522 48.0711C13.9626 48.3102 15.7593 51.5715 15.7593 51.5715C18.7889 56.7634 23.7057 55.2627 25.6441 54.3953C25.9489 52.1999 26.8293 50.7008 27.8007 49.8525C20.2559 48.9947 12.3241 46.0815 12.3241 33.0659C12.3241 29.3573 13.6516 26.3271 15.8245 23.9477C15.4712 23.0927 14.3086 19.6379 16.153 14.959C16.153 14.959 19.0049 14.046 25.4961 18.4409C28.2062 17.6877 31.1127 17.3091 34 17.2962C36.8856 17.3091 39.7938 17.6865 42.5089 18.4397C48.9923 14.0449 51.8408 14.9579 51.8408 14.9579C53.6898 19.6362 52.5271 23.0916 52.1744 23.9466C54.3524 26.326 55.6703 29.3562 55.6703 33.0647C55.6703 46.1114 47.7239 48.9835 40.1599 49.825C41.3789 50.8791 42.4645 52.9469 42.4645 56.1154C42.4645 60.6604 42.4251 64.3184 42.4251 65.4372C42.4251 66.3411 43.0371 67.4003 44.7584 67.0667C58.2471 62.5701 67.9688 49.8419 67.9688 34.8389C67.9683 16.0789 52.7594 0.871168 34 0.871168V0.870605Z" fill="#181616"/>
<path id="Vector_2" d="M12.8972 49.6409C12.8224 49.8097 12.5569 49.8603 12.3151 49.745C12.0676 49.6347 11.9298 49.4047 12.0096 49.2354C12.0828 49.061 12.3488 49.0132 12.5946 49.1296C12.8421 49.2404 12.9828 49.4727 12.8967 49.6415L12.8972 49.6409ZM14.2731 51.176C14.1117 51.3262 13.795 51.2564 13.5801 51.0185C13.3574 50.7822 13.3158 50.4656 13.4806 50.3131C13.6482 50.1635 13.9553 50.2344 14.1781 50.4706C14.3997 50.7102 14.4436 51.0241 14.2737 51.1766L14.2731 51.176ZM15.613 53.1318C15.4049 53.2769 15.064 53.1414 14.8536 52.8393C14.6455 52.5367 14.6455 52.1739 14.8593 52.0293C15.0691 51.8842 15.4049 52.0152 15.6186 52.3145C15.8256 52.6211 15.8256 52.9839 15.613 53.1312V53.1318ZM17.4473 55.0224C17.2617 55.2277 16.8646 55.1726 16.5743 54.893C16.2779 54.6191 16.1952 54.2292 16.3814 54.0245C16.5704 53.8186 16.9692 53.876 17.2611 54.1539C17.5576 54.4272 17.647 54.8176 17.4484 55.0218L17.4473 55.0224ZM19.9786 56.1198C19.8959 56.3859 19.5145 56.5068 19.1292 56.3932C18.745 56.2767 18.4936 55.9657 18.5723 55.6968C18.6511 55.4285 19.0352 55.3031 19.4228 55.424C19.807 55.5399 20.0584 55.8492 19.9786 56.1198ZM22.759 56.3229C22.7686 56.603 22.4423 56.8347 22.039 56.8404C21.6323 56.8499 21.3033 56.6227 21.2993 56.347C21.2993 56.0641 21.6188 55.8352 22.0249 55.8273C22.4282 55.82 22.7596 56.045 22.7596 56.3223L22.759 56.3229ZM25.3454 55.883C25.3937 56.1558 25.1131 56.4365 24.712 56.5113C24.3182 56.5844 23.9526 56.4145 23.902 56.144C23.8536 55.8639 24.1394 55.5832 24.5331 55.5106C24.9347 55.4414 25.2947 55.6062 25.3454 55.8836V55.883Z" fill="#181616"/>
</g>
</svg>
