<svg width="72" height="72" viewBox="0 0 72 72" fill="none" xmlns="http://www.w3.org/2000/svg">
<g id="Logos/html5-original">
<path id="Vector" d="M10.7083 64.0553L5.08044 0.934326H66.9194L61.2854 64.0457L35.9623 71.0657L10.7083 64.0553Z" fill="#E44D26"/>
<path id="Vector_2" d="M36 65.7L56.4626 60.0266L61.2771 6.09521H36V65.7Z" fill="#F16529"/>
<path id="Vector_3" d="M36 29.5059H25.7557L25.0481 21.578H36V13.8369H16.5875L16.7731 15.9137L18.6755 37.2476H36V29.5059ZM36 49.6114L35.9656 49.6209L27.3442 47.2922L26.7935 41.1187H19.0215L20.106 53.2738L35.9645 57.6759L36 57.6664V49.6114Z" fill="#EBEBEB"/>
<path id="Vector_4" d="M35.973 29.5059V37.2476H45.5057L44.6074 47.2877L35.973 49.6181V57.6725L51.844 53.2738L51.9604 51.966L53.7795 31.5849L53.968 29.5059H51.8822H35.973ZM35.973 13.8369V21.578H54.6728L54.828 19.8388L55.1813 15.9137L55.3663 13.8369H35.973Z" fill="white"/>
</g>
</svg>
