<svg width="72" height="72" viewBox="0 0 72 72" fill="none" xmlns="http://www.w3.org/2000/svg">
<g id="Logos/jquery-plain">
<path id="Vector" d="M36.7217 60.1472C36.2559 60.042 35.8031 59.8963 35.3486 59.7619L35.0061 59.6578C34.5626 59.5219 34.1216 59.3785 33.6831 59.2275L33.5014 59.1617C33.1103 59.0236 32.7214 58.8794 32.3347 58.7292L32.0074 58.6003C31.5844 58.4333 31.1636 58.2589 30.7485 58.0767L30.4971 57.9653C30.141 57.8045 29.7868 57.6396 29.4345 57.4708L29.1274 57.3235C28.8512 57.189 28.5778 57.0462 28.3056 56.9055C28.1233 56.8093 27.9377 56.7188 27.7571 56.6187C27.4256 56.4403 27.0972 56.2561 26.7722 56.0663L26.4397 55.8807C26.0079 55.6259 25.5803 55.3639 25.1572 55.0948L24.8113 54.8642C24.5036 54.6671 24.1992 54.4647 23.8984 54.2573L23.6042 54.0508C23.3145 53.8458 23.0268 53.6379 22.7413 53.427L22.3594 53.1379C22.0972 52.9384 21.8377 52.7355 21.5809 52.5293L21.2338 52.2508C20.907 51.9827 20.5837 51.7102 20.2641 51.4335L20.1583 51.3441C19.8139 51.0404 19.4741 50.7316 19.1391 50.4177L18.8522 50.1415C18.6041 49.9052 18.36 49.6673 18.1198 49.4232L17.8329 49.1368C17.5281 48.8248 17.2282 48.5079 16.9335 48.1862L16.8896 48.139C16.5792 47.7989 16.2753 47.4531 15.9778 47.1017L15.7393 46.8182C15.5168 46.5509 15.2979 46.2805 15.0829 46.0071L14.8427 45.7078C14.5853 45.3751 14.3327 45.0387 14.085 44.6987C7.25062 35.3758 4.79474 22.5182 10.2577 11.959L5.41405 18.102C-0.789758 27.0182 -0.0174457 38.6198 4.72162 48.0945C4.83412 48.3218 4.9528 48.5451 5.06868 48.7684L5.29087 49.1953L5.42868 49.4412L5.67562 49.8833C5.82299 50.1426 5.97374 50.4008 6.12843 50.659L6.38605 51.0842C6.55705 51.3604 6.73199 51.6332 6.91143 51.9055L7.1353 52.2508C7.38168 52.6193 7.6348 52.9872 7.8958 53.3483L7.91774 53.3764L8.04599 53.5497C8.27099 53.8607 8.50387 54.1678 8.73899 54.4716L8.99943 54.8035C9.20924 55.0673 9.42243 55.3294 9.64012 55.5904L9.8848 55.8829C10.1767 56.2274 10.4741 56.5672 10.7769 56.9022L10.7949 56.9207L10.8298 56.959C11.1273 57.2821 11.4295 57.6007 11.7366 57.9147L12.0274 58.2077C12.2653 58.4473 12.5072 58.683 12.7513 58.9176L13.0472 59.1988C13.3734 59.5065 13.7031 59.808 14.0394 60.1028L14.0552 60.1152L14.2279 60.2625C14.5237 60.519 14.8252 60.7738 15.1296 61.0236L15.5031 61.3212C15.7511 61.5203 16.002 61.716 16.2546 61.9084L16.6562 62.2138C16.9346 62.4192 17.2159 62.6211 17.4994 62.8185L17.8065 63.0362L17.8909 63.0964C18.1597 63.2815 18.4348 63.4598 18.7099 63.6381L19.0642 63.8743C19.4856 64.141 19.9136 64.4048 20.3456 64.6596L20.7 64.8593C21.0184 65.0433 21.3393 65.2231 21.6624 65.3987C21.8379 65.4932 22.0179 65.5827 22.1946 65.6732C22.4235 65.793 22.6507 65.9145 22.8836 66.031L23.0428 66.108L23.3246 66.2442C23.6852 66.4163 24.0486 66.5856 24.4159 66.7487L24.6465 66.8522C25.0675 67.0364 25.4919 67.2129 25.9194 67.3815L26.2294 67.5036C26.6254 67.656 27.027 67.8068 27.4303 67.9485L27.5811 68.0008C28.0232 68.1555 28.4704 68.299 28.9204 68.439L29.2438 68.5358C29.7017 68.6736 30.1539 68.8384 30.6264 68.9256C60.6296 74.397 69.345 50.8958 69.345 50.8958C62.0246 60.4324 49.032 62.9479 36.7217 60.1472ZM25.9138 35.8298C26.586 36.7933 27.3313 37.9397 28.2229 38.7137C28.5491 39.071 28.8848 39.4195 29.2297 39.7588L29.4952 40.0204C29.8304 40.3469 30.1732 40.6653 30.5235 40.9755L30.5651 41.0115L30.5752 41.0217C30.9672 41.363 31.3676 41.6944 31.7762 42.0156L32.0484 42.2282C32.4592 42.5447 32.8781 42.8506 33.3045 43.1457L33.3411 43.1732C33.5301 43.3037 33.723 43.4252 33.9148 43.5512L34.1859 43.7307C34.4919 43.927 34.8024 44.1182 35.1174 44.3016L35.2491 44.3781C35.5207 44.5345 35.7964 44.6886 36.072 44.8382L36.3651 44.9907C36.5557 45.0902 36.7464 45.192 36.9411 45.2888L37.0282 45.3282C37.4231 45.5228 37.8219 45.7107 38.2297 45.8878L38.4952 45.997C38.8208 46.1363 39.149 46.2694 39.4796 46.3963L39.9015 46.551C40.2013 46.6624 40.5022 46.7637 40.806 46.8655L41.2149 46.9965C41.6464 47.1304 42.0727 47.2997 42.5222 47.3745C65.6876 51.2125 71.0353 33.3762 71.0353 33.3762C66.2147 40.3191 56.8783 43.6322 46.9159 41.0458C46.4754 40.93 46.0379 40.8036 45.6036 40.6667L45.2098 40.539C44.9019 40.4394 44.5958 40.334 44.2918 40.2229L43.8778 40.0688C43.5464 39.9415 43.2171 39.8087 42.8901 39.6705L42.624 39.558C42.2167 39.3807 41.8138 39.1934 41.4157 38.9961C41.211 38.8965 41.0102 38.7913 40.8094 38.6878L40.4595 38.5078C40.2014 38.368 39.9458 38.2236 39.6928 38.0747L39.5094 37.9707C39.1963 37.7879 38.8868 37.5989 38.5813 37.4037L38.3012 37.2169C38.0995 37.0863 37.899 36.9537 37.6999 36.8192C37.2753 36.5239 36.8578 36.2186 36.4477 35.9035L36.1659 35.6813C31.8054 32.2388 28.3489 27.5329 26.7052 22.1976C24.9829 16.6648 25.3547 10.4537 28.3382 5.4126L24.6724 10.5876C20.1853 17.044 20.4294 25.6873 23.9293 32.5155C24.5146 33.6641 25.1777 34.7715 25.9138 35.8298ZM50.3302 27.8428C50.5209 27.9132 50.7116 27.9762 50.9051 28.042L51.1588 28.1224C51.4311 28.2079 51.7022 28.3075 51.984 28.3609C64.7747 30.8325 68.2447 21.7971 69.1678 20.4668C66.1286 24.8425 61.0217 25.8927 54.7549 24.3717C54.2599 24.2518 53.7154 24.073 53.2384 23.9037C52.6256 23.686 52.0246 23.4364 51.4378 23.1561C50.3244 22.6202 49.2669 21.975 48.2811 21.2301C42.6735 16.9748 39.1899 8.85847 42.849 2.24854L40.869 4.97722C38.2241 8.86972 37.9642 13.7038 39.7997 18.0025C41.7352 22.5655 45.7014 26.1447 50.3302 27.8428Z" fill="#0868AC"/>
</g>
</svg>
