<svg width="72" height="72" viewBox="0 0 72 72" fill="none" xmlns="http://www.w3.org/2000/svg">
<path d="M63.4337 17.0628L38.6291 2.65995C37.0648 1.76895 35.028 1.76895 33.4513 2.65995L8.38181 17.0628C6.76744 17.9914 5.625 19.7369 5.625 21.6038V50.3712C5.625 52.2381 6.79725 53.9841 8.41163 54.9179L15.0351 58.6799C18.2008 60.2391 19.3196 60.2391 20.7602 60.2391C25.4475 60.2391 28.125 57.4047 28.125 52.4609V24.0603C28.125 23.6592 27.9163 23.0624 27.5226 23.0624H24.3596C23.9591 23.0624 23.0625 23.6592 23.0625 24.0597V52.4603C23.0625 54.6518 21.0802 56.8326 17.3756 54.9803L10.5317 51.0355C10.2932 50.9061 10.125 50.6457 10.125 50.3712V21.6038C10.125 21.3327 10.4372 21.0604 10.6774 20.9215L35.6659 6.54345C35.8993 6.41126 36.2424 6.41126 36.4753 6.54345L61.1589 20.9181C61.3952 21.0604 61.3119 21.3243 61.3119 21.6038V50.3712C61.3119 50.6457 61.4149 50.9129 61.1814 51.0451L36.3831 65.4316C36.1704 65.5593 35.9066 65.5593 35.6737 65.4316L29.3136 61.6353C29.1217 61.5239 28.8939 61.4839 28.71 61.5869C26.9404 62.5898 26.6141 62.7231 24.9542 63.2986C24.5458 63.4409 23.9434 63.6878 25.1848 64.3836L33.5087 69.3078C34.3034 69.7668 35.2049 70.0085 36.1226 70.0086C37.0463 70.0086 37.9508 69.769 38.7478 69.3078L63.4331 54.9179C65.0475 53.9774 65.8125 52.2381 65.8125 50.3712V21.6038C65.8125 19.7369 65.0475 17.9959 63.4337 17.0628ZM43.8244 45.8127C37.2285 45.8127 35.7756 43.993 35.2913 40.7131C35.235 40.3598 34.9352 39.9374 34.5757 39.9374H31.3521C30.9532 39.9374 30.6326 40.4211 30.6326 40.8183C30.6326 45.0179 32.9158 50.1063 43.8249 50.1063C51.7219 50.1063 56.2494 47.0378 56.2494 41.6074C56.2494 36.2232 52.6118 34.8102 44.9533 33.7966C37.2122 32.7734 36.4258 32.2564 36.4258 30.4429C36.4258 28.9478 37.0918 26.9538 42.8237 26.9538C47.9452 26.9538 49.833 28.0529 50.6098 31.5049C50.6762 31.8295 50.9726 32.0624 51.3073 32.0624H54.5439C54.7431 32.0624 54.9332 31.9819 55.0727 31.8396C55.2077 31.6866 55.2791 31.4948 55.2611 31.2889C54.7599 25.3444 50.8106 22.5741 42.8231 22.5741C35.7182 22.5741 31.4797 25.5745 31.4797 30.6038C31.4797 36.0589 35.6968 37.5664 42.5171 38.2409C50.6762 39.0408 51.3107 40.2333 51.3107 41.8381C51.3107 44.6253 49.0731 45.8127 43.8244 45.8127Z" fill="#83CD29"/>
</svg>
