<svg width="72" height="72" viewBox="0 0 72 72" fill="none" xmlns="http://www.w3.org/2000/svg">
<g id="Logos/redux-original">
<path id="Vector" d="M49.8881 49.5616C44.8256 59.9116 35.9606 66.8754 24.2325 69.1648C22.4343 69.6053 20.5882 69.8207 18.7369 69.806C11.9869 69.806 5.79939 66.9935 2.79563 62.3866C-1.23749 56.2498 -2.60999 43.2391 10.6875 33.6148C10.9575 35.0829 11.5088 37.0966 11.8744 38.2891C9.26401 40.2285 7.12732 42.7344 5.62501 45.6185C3.15001 50.4785 3.42563 55.3329 6.35626 59.8216C8.38126 62.8479 11.5875 64.6873 15.7106 65.2498C20.8605 65.9016 26.085 64.9177 30.645 62.4373C37.7944 58.6798 42.5588 54.191 45.675 48.0541C44.7938 47.1435 44.2723 45.9446 44.2069 44.6791C44.1598 43.3212 44.6533 42 45.5793 41.0056C46.5052 40.0111 47.7878 39.4246 49.1456 39.3748H49.3369C50.6576 39.3681 51.9303 39.8695 52.8917 40.7751C53.8531 41.6807 54.4296 42.9212 54.5018 44.24C54.5741 45.5587 54.1366 46.8548 53.2799 47.86C52.4233 48.8652 51.2129 49.5027 49.8994 49.6404L49.8881 49.5616ZM66.015 38.1991C72.8831 45.9841 73.0688 55.1473 70.4138 60.4629C67.9388 65.3173 61.4138 70.1773 52.6388 70.1773C48.5424 70.0937 44.5127 69.1247 40.8263 67.3366C42.1144 66.4198 43.9425 64.9516 44.9494 64.0348C47.7922 65.2663 50.8515 65.9203 53.9494 65.9585C59.6306 65.9585 63.9338 63.3035 66.4988 58.4491C68.1469 55.2429 68.2425 51.4854 66.6844 47.6379C64.7725 42.7969 61.3704 38.6896 56.97 35.9098C51.1969 32.0181 44.3911 29.9434 37.4288 29.9529H35.7806C35.3963 30.8407 34.7711 31.6031 33.9758 32.1538C33.1805 32.7046 32.2469 33.0217 31.2806 33.0691H31.1063C29.7699 33.0527 28.4925 32.516 27.5455 31.5729C26.5985 30.6298 26.0564 29.3546 26.0344 28.0183C26.0125 26.682 26.5123 25.3897 27.4278 24.416C28.3433 23.4423 29.6024 22.8639 30.9375 22.8035H31.1231C32.0535 22.8042 32.9658 23.0613 33.7596 23.5465C34.5535 24.0318 35.1982 24.7264 35.6231 25.5541H37.0913C48.7913 25.5541 59.0625 30.0429 66.015 38.1991ZM19.4681 51.1366C19.3718 50.2026 19.5981 49.2637 20.1094 48.476C14.9794 39.5885 12.2344 28.3216 16.4475 16.5935C19.4681 7.77914 27.0731 1.82227 35.3194 1.82227C44.1169 1.82227 53.28 9.52289 54.3769 24.3616C53.0044 23.906 51.0019 23.2366 49.7981 22.9891C49.5 18.1348 45.3994 6.04102 35.685 6.22102C32.2031 6.31664 27.0731 7.96477 24.435 11.351C21.1717 15.3933 19.2734 20.3656 19.0125 25.5541C18.3942 32.6685 20.0633 39.7945 23.7769 45.8941C23.9819 45.8192 24.2004 45.7886 24.4181 45.8041H24.5981C25.9587 45.7795 27.2733 46.2964 28.2528 47.2411C29.2322 48.1857 29.7963 49.4808 29.8209 50.8413C29.8456 52.2019 29.3287 53.5165 28.384 54.496C27.4394 55.4754 26.1443 56.0395 24.7838 56.0641H24.5981C23.2708 56.0594 21.9965 55.5427 21.0408 54.6215C20.0851 53.7004 19.5217 52.446 19.4681 51.1198V51.1366Z" fill="#764ABC"/>
</g>
</svg>
