<svg width="73" height="72" viewBox="0 0 73 72" fill="none" xmlns="http://www.w3.org/2000/svg">
<g id="Logos/tailwindcss-plain">
<path id="Vector" d="M36.0022 14.4011C26.402 14.4011 20.4041 19.1992 18.0022 28.7994C21.6011 24.0007 25.8024 22.2013 30.6011 23.4011C33.341 24.084 35.2991 26.0707 37.4675 28.2724C40.9966 31.8538 45.0815 36 54.0022 36C63.6018 36 69.6003 31.2013 72.0022 21.5989C68.4028 26.4004 64.202 28.1998 59.4028 27C56.6634 26.3166 54.7076 24.3304 52.5363 22.1287C49.0094 18.5473 44.9257 14.4011 36.0022 14.4011ZM18.0022 36C8.40257 36 2.40407 40.7987 0.00219727 50.4011C3.60107 45.5996 7.80182 43.8002 12.6011 45C15.341 45.6834 17.2991 47.6696 19.4675 49.8713C22.9966 53.4527 27.0815 57.5989 36.0022 57.5989C45.6018 57.5989 51.6003 52.8008 54.0022 43.2006C50.4028 47.9993 46.202 49.7987 41.4028 48.5989C38.6634 47.916 36.7076 45.9292 34.5363 43.7276C31.0094 40.1462 26.9257 36 18.0022 36Z" fill="#38B2AC"/>
</g>
</svg>
