<svg width="72" height="72" viewBox="0 0 72 72" fill="none" xmlns="http://www.w3.org/2000/svg">
<g id="Logos/wordpress-plain">
<path id="Vector" fillRule="evenodd" clipRule="evenodd" d="M36.0529 71.0012C55.3326 70.9719 70.9397 55.2889 70.9397 35.9434C70.9397 16.9123 55.4046 1.23879 36.8449 0.907479C17.3531 0.559854 1.06537 16.3762 1.0603 35.5558C1.05468 55.2877 16.5921 71.0293 36.0529 71.0012ZM35.9961 2.60454C54.5062 2.59835 69.2544 17.6374 69.2488 36.512C69.2426 54.3315 54.1035 69.2383 36.0096 69.2422C17.5759 69.2462 2.75174 54.3005 2.7523 35.7127C2.75343 17.6042 17.8082 2.61073 35.9961 2.60454ZM22.0258 20.1917C22.3284 21.2002 21.4813 21.5512 20.5807 21.6215C19.6329 21.6947 18.6857 21.7661 17.5854 21.8499C21.2169 32.669 24.7939 43.3279 28.4557 54.2347C28.7167 53.8078 28.8242 53.6874 28.8714 53.5468C30.8818 47.5382 32.9034 41.5335 34.8626 35.508C35.0415 34.9584 34.9526 34.2305 34.7569 33.6658C33.7202 30.6733 32.4782 27.746 31.5692 24.7175C30.9476 22.6442 30.123 21.3026 27.6722 21.5428C27.2548 21.5839 26.7452 20.6855 26.2777 20.2215C26.8431 19.884 27.4044 19.263 27.9748 19.2545C32.9654 19.1779 37.9569 19.1794 42.9474 19.259C43.5201 19.2686 44.0814 19.9059 44.6467 20.2519C44.1517 20.7041 43.7248 21.3825 43.146 21.5574C42.2173 21.8375 41.1874 21.7847 40.0759 21.8837L50.9597 54.2612C52.6084 48.7847 54.1423 43.7559 55.6341 38.7142C56.9649 34.2137 56.1718 30.0107 53.7654 26.0467C53.0421 24.8548 52.1533 23.6983 51.7432 22.3984C51.2775 20.9195 50.8905 19.236 51.1374 17.7527C51.5565 15.2389 53.4853 13.9907 56.0953 13.7516C41.8123 0.495729 19.3674 5.24098 11.097 19.6438C14.2807 19.497 17.3205 19.304 20.3625 19.2624C20.9374 19.2551 21.8908 19.7411 22.0258 20.1917ZM27.7166 64.0504C27.6502 64.2444 27.6463 64.4604 27.594 64.7827C33.7494 66.4893 39.7862 66.3662 45.9647 64.2844L36.5259 38.4319C33.5053 47.213 30.6084 55.6303 27.7166 64.0504ZM22.9601 62.8815L8.73955 23.8721C2.32424 36.4035 7.20449 55.5229 22.9601 62.8815ZM65.9509 37.8154C66.402 31.89 64.3579 23.6859 62.5927 22.5575C62.3959 24.7372 62.5331 27.1622 61.9076 29.3717C60.4356 34.5776 58.6356 39.693 56.9019 44.8224C55.0176 50.3979 53.0589 55.9481 51.1324 61.5095C60.1841 56.1439 65.1583 48.2244 65.9509 37.8154Z" fill="#494949"/>
</g>
</svg>
