<svg width="1539" height="2850" viewBox="0 0 1539 2850" fill="none" xmlns="http://www.w3.org/2000/svg">
<g clip-path="url(#clip0_126_322)">
<rect width="1539" height="2850" fill="white"/>
<rect y="1261" width="1440" height="287" fill="url(#paint0_linear_126_322)"/>
<circle opacity="0.9" cx="1363.36" cy="977.363" r="186.5" transform="rotate(180 1363.36 977.363)" stroke="white" stroke-width="3"/>
<circle opacity="0.8" cx="1363.36" cy="977.363" r="223.5" transform="rotate(180 1363.36 977.363)" stroke="white" stroke-width="3"/>
<circle opacity="0.7" cx="1363.36" cy="977.363" r="261.75" transform="rotate(180 1363.36 977.363)" stroke="white" stroke-width="3"/>
<circle opacity="0.6" cx="1363.36" cy="977.363" r="306.503" transform="rotate(180 1363.36 977.363)" stroke="white" stroke-width="3"/>
<circle opacity="0.5" cx="1363.36" cy="977.363" r="358.863" transform="rotate(180 1363.36 977.363)" stroke="white" stroke-width="3"/>
<circle cx="1363.36" cy="977.363" r="142.5" transform="rotate(180 1363.36 977.363)" stroke="white" stroke-width="3"/>
<circle cx="1363.23" cy="977.226" r="98" transform="rotate(180 1363.23 977.226)" stroke="white" stroke-width="3"/>
<circle opacity="0.9" cx="-71.6372" cy="1023.36" r="186.5" transform="rotate(180 -71.6372 1023.36)" stroke="white" stroke-width="3"/>
<circle opacity="0.8" cx="-71.6372" cy="1023.36" r="223.5" transform="rotate(180 -71.6372 1023.36)" stroke="white" stroke-width="3"/>
<circle opacity="0.7" cx="-71.6372" cy="1023.36" r="261.75" transform="rotate(180 -71.6372 1023.36)" stroke="white" stroke-width="3"/>
<circle opacity="0.6" cx="-71.6373" cy="1023.36" r="306.503" transform="rotate(180 -71.6373 1023.36)" stroke="white" stroke-width="3"/>
<circle opacity="0.5" cx="-71.6373" cy="1023.36" r="358.863" transform="rotate(180 -71.6373 1023.36)" stroke="white" stroke-width="3"/>
<circle cx="-71.6372" cy="1023.36" r="142.5" transform="rotate(180 -71.6372 1023.36)" stroke="white" stroke-width="3"/>
<circle cx="-71.7744" cy="1023.23" r="98" transform="rotate(180 -71.7744 1023.23)" stroke="white" stroke-width="3"/>
<g filter="url(#filter0_f_126_322)">
<circle cx="322" cy="840" r="425" fill="#CCEDFF" fill-opacity="0.6"/>
</g>
<g filter="url(#filter1_f_126_322)">
<circle cx="1296" cy="883" r="425" fill="#CCEDFF" fill-opacity="0.6"/>
</g>
<g filter="url(#filter2_f_126_322)">
<circle cx="1145" cy="1489" r="425" fill="#F9F29E" fill-opacity="0.4"/>
</g>
<g filter="url(#filter3_f_126_322)">
<circle cx="254" cy="2152" r="425" fill="#F9F29E" fill-opacity="0.4"/>
</g>
<g filter="url(#filter4_f_126_322)">
<circle cx="1244" cy="2122" r="425" fill="#F9F29E" fill-opacity="0.4"/>
</g>
<g filter="url(#filter5_f_126_322)">
<circle cx="336" cy="1453" r="461" fill="#FAF8CF" fill-opacity="0.4"/>
</g>
<g filter="url(#filter6_f_126_322)">
<circle cx="300" cy="336" r="425" fill="#CCEDFF" fill-opacity="0.6"/>
</g>
<g filter="url(#filter7_f_126_322)">
<circle cx="1369" cy="328" r="425" fill="#CCEDFF" fill-opacity="0.6"/>
</g>
<circle opacity="0.9" cx="1231.36" cy="379.363" r="186.5" transform="rotate(180 1231.36 379.363)" stroke="#FAFAFA" stroke-width="3"/>
<circle opacity="0.8" cx="1231.36" cy="379.363" r="223.5" transform="rotate(180 1231.36 379.363)" stroke="#FAFAFA" stroke-width="3"/>
<circle opacity="0.7" cx="1231.36" cy="379.363" r="261.75" transform="rotate(180 1231.36 379.363)" stroke="#FAFAFA" stroke-width="3"/>
<circle opacity="0.6" cx="1231.36" cy="379.363" r="306.503" transform="rotate(180 1231.36 379.363)" stroke="#FAFAFA" stroke-width="3"/>
<circle opacity="0.5" cx="1231.36" cy="379.363" r="358.863" transform="rotate(180 1231.36 379.363)" stroke="#FAFAFA" stroke-width="3"/>
<circle cx="1231.36" cy="379.363" r="142.5" transform="rotate(180 1231.36 379.363)" stroke="#FAFAFA" stroke-width="3"/>
<circle cx="1231.23" cy="379.226" r="98" transform="rotate(180 1231.23 379.226)" stroke="#FAFAFA" stroke-width="3"/>
<circle opacity="0.9" cx="189.363" cy="241.363" r="186.5" transform="rotate(180 189.363 241.363)" stroke="#FAFAFA" stroke-width="3"/>
<circle opacity="0.8" cx="189.363" cy="241.363" r="223.5" transform="rotate(180 189.363 241.363)" stroke="#FAFAFA" stroke-width="3"/>
<circle opacity="0.7" cx="189.363" cy="241.363" r="261.75" transform="rotate(180 189.363 241.363)" stroke="#FAFAFA" stroke-width="3"/>
<circle opacity="0.6" cx="189.363" cy="241.363" r="306.503" transform="rotate(180 189.363 241.363)" stroke="#FAFAFA" stroke-width="3"/>
<circle opacity="0.5" cx="189.363" cy="241.363" r="358.863" transform="rotate(180 189.363 241.363)" stroke="#FAFAFA" stroke-width="3"/>
<circle cx="189.363" cy="241.363" r="142.5" transform="rotate(180 189.363 241.363)" stroke="#FAFAFA" stroke-width="3"/>
<circle cx="189.226" cy="241.226" r="98" transform="rotate(180 189.226 241.226)" stroke="#FAFAFA" stroke-width="3"/>
</g>
<defs>
<filter id="filter0_f_126_322" x="-403" y="115" width="1450" height="1450" filterUnits="userSpaceOnUse" color-interpolation-filters="sRGB">
<feFlood flood-opacity="0" result="BackgroundImageFix"/>
<feBlend mode="normal" in="SourceGraphic" in2="BackgroundImageFix" result="shape"/>
<feGaussianBlur stdDeviation="150" result="effect1_foregroundBlur_126_322"/>
</filter>
<filter id="filter1_f_126_322" x="571" y="158" width="1450" height="1450" filterUnits="userSpaceOnUse" color-interpolation-filters="sRGB">
<feFlood flood-opacity="0" result="BackgroundImageFix"/>
<feBlend mode="normal" in="SourceGraphic" in2="BackgroundImageFix" result="shape"/>
<feGaussianBlur stdDeviation="150" result="effect1_foregroundBlur_126_322"/>
</filter>
<filter id="filter2_f_126_322" x="420" y="764" width="1450" height="1450" filterUnits="userSpaceOnUse" color-interpolation-filters="sRGB">
<feFlood flood-opacity="0" result="BackgroundImageFix"/>
<feBlend mode="normal" in="SourceGraphic" in2="BackgroundImageFix" result="shape"/>
<feGaussianBlur stdDeviation="150" result="effect1_foregroundBlur_126_322"/>
</filter>
<filter id="filter3_f_126_322" x="-471" y="1427" width="1450" height="1450" filterUnits="userSpaceOnUse" color-interpolation-filters="sRGB">
<feFlood flood-opacity="0" result="BackgroundImageFix"/>
<feBlend mode="normal" in="SourceGraphic" in2="BackgroundImageFix" result="shape"/>
<feGaussianBlur stdDeviation="150" result="effect1_foregroundBlur_126_322"/>
</filter>
<filter id="filter4_f_126_322" x="519" y="1397" width="1450" height="1450" filterUnits="userSpaceOnUse" color-interpolation-filters="sRGB">
<feFlood flood-opacity="0" result="BackgroundImageFix"/>
<feBlend mode="normal" in="SourceGraphic" in2="BackgroundImageFix" result="shape"/>
<feGaussianBlur stdDeviation="150" result="effect1_foregroundBlur_126_322"/>
</filter>
<filter id="filter5_f_126_322" x="-425" y="692" width="1522" height="1522" filterUnits="userSpaceOnUse" color-interpolation-filters="sRGB">
<feFlood flood-opacity="0" result="BackgroundImageFix"/>
<feBlend mode="normal" in="SourceGraphic" in2="BackgroundImageFix" result="shape"/>
<feGaussianBlur stdDeviation="150" result="effect1_foregroundBlur_126_322"/>
</filter>
<filter id="filter6_f_126_322" x="-425" y="-389" width="1450" height="1450" filterUnits="userSpaceOnUse" color-interpolation-filters="sRGB">
<feFlood flood-opacity="0" result="BackgroundImageFix"/>
<feBlend mode="normal" in="SourceGraphic" in2="BackgroundImageFix" result="shape"/>
<feGaussianBlur stdDeviation="150" result="effect1_foregroundBlur_126_322"/>
</filter>
<filter id="filter7_f_126_322" x="644" y="-397" width="1450" height="1450" filterUnits="userSpaceOnUse" color-interpolation-filters="sRGB">
<feFlood flood-opacity="0" result="BackgroundImageFix"/>
<feBlend mode="normal" in="SourceGraphic" in2="BackgroundImageFix" result="shape"/>
<feGaussianBlur stdDeviation="150" result="effect1_foregroundBlur_126_322"/>
</filter>
<linearGradient id="paint0_linear_126_322" x1="720" y1="1261" x2="720" y2="1548" gradientUnits="userSpaceOnUse">
<stop stop-color="white" stop-opacity="0"/>
<stop offset="0.523958" stop-color="white"/>
<stop offset="1" stop-color="white" stop-opacity="0"/>
</linearGradient>
<clipPath id="clip0_126_322">
<rect width="1539" height="2850" fill="white"/>
</clipPath>
</defs>
</svg>
